# xmcd
#
# Track frame offsets: 
#        150
#        21747
#        38967
#        53737
#        70810
#        84952
#        104032
#        120102
#        139002
#        152787
#        168285
#        181670
#        195792
#        208072
#        224875
#        240060
#        256115
#        273257
#        290500
#        307207
#
# Disc length: 4252 seconds
#
# Revision: 2
# Processed by: cddbd v1.4PL0 Copyright (c) Steve Scherf et al.
# Submitted via: ExactAudioCopy v0.90a11
#
DISCID=1a109a14
DTITLE=Kenny Rogers - Endless Love
DYEAR=1900
DGENRE=
TTITLE0=Have I Told You Lately That I Love You
TTITLE1=I Swear
TTITLE2=Crazy
TTITLE3=Buy Me A Rose
TTITLE4=You Are So Beautiful
TTITLE5=I Can´t Make You Love Me
TTITLE6=Evergreen
TTITLE7=She Believes In Me
TTITLE8=Love Me Tender
TTITLE9=When I Fall In Love
TTITLE10=I Will Always Love You
TTITLE11=You Light Up My Life
TTITLE12=Somewhere My Love
TTITLE13=Stardust
TTITLE14=I Can´t Help Falling In Love
TTITLE15=The Wind Beneath My Wings
TTITLE16=Endless Love
TTITLE17=Lady
TTITLE18=When A Man Loves A Woman
TTITLE19=Love Is A Many Splendoured Thing
EXTD=
EXTT0=
EXTT1=
EXTT2=
EXTT3=
EXTT4=
EXTT5=
EXTT6=
EXTT7=
EXTT8=
EXTT9=
EXTT10=
EXTT11=
EXTT12=
EXTT13=
EXTT14=
EXTT15=
EXTT16=
EXTT17=
EXTT18=
EXTT19=
PLAYORDER=
